PathFileType	4	(X/Y/Z)	RBDS08static.trc
DataRate	CameraRate	NumFrames	NumMarkers	Units	OrigDataRate	OrigDataStartFrame	OrigNumFrames
150.000000	150.000000	4	48	mm	150.000000	37	150
Frame#	Time	L.Ankle			L.Ankle.Medial			L.ASIS			L.GTR			L.Heel.Bottom			L.Heel.Lateral			L.Heel.Top			L.HF			L.Iliac.Crest			L.Knee			L.Knee.Medial			L.MT1			L.MT2			L.MT5			L.PSIS			L.Shank.Bottom.Lateral			L.Shank.Bottom.Medial			L.Shank.Top.Lateral			L.Shank.Top.Medial			L.Thigh.Bottom.Lateral			L.Thigh.Bottom.Medial			L.Thigh.Top.Lateral			L.Thigh.Top.Medial			L.TT			R.Ankle			R.Ankle.Medial			R.ASIS			R.GTR			R.Heel.Bottom			R.Heel.Lateral			R.Heel.Top			R.HF			R.Iliac.Crest			R.Knee			R.Knee.Medial			R.MT1			R.MT2			R.MT5			R.PSIS			R.Shank.Bottom.Lateral			R.Shank.Bottom.Medial			R.Shank.Top.Lateral			R.Shank.Top.Medial			R.Thigh.Bottom.Lateral			R.Thigh.Bottom.Medial			R.Thigh.Top.Lateral			R.Thigh.Top.Medial			R.TT			
		X1	Y1	Z1	X2	Y2	Z2	X3	Y3	Z3	X4	Y4	Z4	X5	Y5	Z5	X6	Y6	Z6	X7	Y7	Z7	X8	Y8	Z8	X9	Y9	Z9	X10	Y10	Z10	X11	Y11	Z11	X12	Y12	Z12	X13	Y13	Z13	X14	Y14	Z14	X15	Y15	Z15	X16	Y16	Z16	X17	Y17	Z17	X18	Y18	Z18	X19	Y19	Z19	X20	Y20	Z20	X21	Y21	Z21	X22	Y22	Z22	X23	Y23	Z23	X24	Y24	Z24	X25	Y25	Z25	X26	Y26	Z26	X27	Y27	Z27	X28	Y28	Z28	X29	Y29	Z29	X30	Y30	Z30	X31	Y31	Z31	X32	Y32	Z32	X33	Y33	Z33	X34	Y34	Z34	X35	Y35	Z35	X36	Y36	Z36	X37	Y37	Z37	X38	Y38	Z38	X39	Y39	Z39	X40	Y40	Z40	X41	Y41	Z41	X42	Y42	Z42	X43	Y43	Z43	X44	Y44	Z44	X45	Y45	Z45	X46	Y46	Z46	X47	Y47	Z47	X48	Y48	Z48	

38	0.2466666666666667	756.6220092773438	103.2477188110352	1046.848999023438	774.141357421875	108.3652648925781	1131.275512695313	901.6557006835938	1042.436279296875	1109.838745117188	832.3363037109375	938.8632202148438	1048.829711914063	670.9839477539063	44.78494262695313	1081.0712890625	702.0949096679688	63.10969924926758	1036.863647460938	685.295654296875	94.65505218505859	1085.985717773438	787.0724487304688	480.5270690917969	1031.083862304688	828.435302734375	1104.737548828125	1080.657958984375	791.8993530273438	539.9329223632813	1037.936889648438	780.693603515625	522.519775390625	1151.201293945313	899.6300048828125	62.05781173706055	1116.46630859375	903.2173461914063	67.05329132080078	1075.26611328125	861.0491943359375	50.42336273193359	1009.369567871094	731.5479125976563	1059.534057617188	1180.177368164063	745.0162353515625	176.3323974609375	1038.087890625	706.9862670898438	177.199951171875	1073.43798828125	740.0618896484375	256.291748046875	1026.243041992188	704.6574096679688	261.6229858398438	1066.117553710938	801.6257934570313	674.6373291015625	1021.898315429688	742.6121215820313	669.4873657226563	1065.18359375	794.7570190429688	785.1478271484375	1028.775268554688	742.091064453125	779.5394897460938	1075.272216796875	836.3760986328125	453.2675170898438	1079.90869140625	737.3211059570313	107.9207916259766	1407.192016601563	762.6705322265625	114.8905792236328	1323.947387695313	907.86083984375	1038.826904296875	1345.512084960938	834.0293579101563	944.5128784179688	1403.655395507813	657.742919921875	43.79350280761719	1371.13330078125	685.6151123046875	60.94496536254883	1412.82470703125	668.927734375	93.07862854003906	1369.081665039063	771.00244140625	487.4491577148438	1433.238525390625	839.4931640625	1097.650756835938	1377.423095703125	775.2578735351563	543.2886352539063	1426.105346679688	764.648681640625	521.868896484375	1313.191650390625	884.1563720703125	60.83627319335938	1330.715209960938	890.7667236328125	68.89753723144531	1376.724975585938	852.429931640625	56.70615005493164	1436.8154296875	734.3406372070313	1060.799682617188	1283.29833984375	716.5488891601563	192.2192535400391	1418.405151367188	690.1845092773438	196.2098083496094	1369.490478515625	707.6068725585938	272.7138977050781	1426.469116210938	686.343994140625	275.7817077636719	1376.888916015625	791.0598754882813	652.6364135742188	1435.631469726563	731.6390991210938	654.4330444335938	1391.93603515625	793.3590087890625	763.18798828125	1433.339477539063	738.390869140625	764.3135986328125	1391.24462890625	818.91650390625	461.0612487792969	1385.73046875	
39	0.2533333333333334	756.6226806640625	103.2461700439453	1046.848266601563	774.1439208984375	108.369743347168	1131.28125	901.6630249023438	1042.437133789063	1109.854858398438	832.3438720703125	938.8590087890625	1048.83984375	670.9846801757813	44.78901290893555	1081.068237304688	702.093017578125	63.11345672607422	1036.8623046875	685.2906494140625	94.65791320800781	1085.981811523438	787.0757446289063	480.5261840820313	1031.090698242188	828.4443969726563	1104.746215820313	1080.66845703125	791.911376953125	539.9334106445313	1037.956176757813	780.7041015625	522.5253295898438	1151.211181640625	899.6192626953125	62.05786514282227	1116.46923828125	903.220947265625	67.05442047119141	1075.265014648438	861.0502319335938	50.42292022705078	1009.3720703125	731.5474853515625	1059.538452148438	1180.196166992188	745.0214233398438	176.3400268554688	1038.091430664063	706.989501953125	177.1937103271484	1073.433471679688	740.0745239257813	256.2969360351563	1026.241821289063	704.6646728515625	261.6272888183594	1066.115356445313	801.6249389648438	674.639892578125	1021.910034179688	742.6129150390625	669.489501953125	1065.1875	794.7643432617188	785.1517944335938	1028.788452148438	742.095458984375	779.542236328125	1075.283447265625	836.3793334960938	453.2579650878906	1079.918701171875	736.9963989257813	108.3104705810547	1407.471313476563	762.6602172851563	114.8873443603516	1323.955078125	907.8648681640625	1038.8212890625	1345.52783203125	834.0318603515625	944.5083618164063	1403.6728515625	657.7423095703125	43.79084014892578	1371.129638671875	685.6197509765625	60.94183731079102	1412.816284179688	668.9266967773438	93.08235168457031	1369.082275390625	770.9938354492188	487.4532775878906	1433.238647460938	839.4937133789063	1097.632690429688	1377.455810546875	775.2508544921875	543.2940063476563	1426.121337890625	764.6383056640625	521.8656005859375	1313.203491210938	884.188720703125	60.82858276367188	1330.693237304688	890.769287109375	68.88953399658203	1376.733642578125	852.42431640625	56.69894409179688	1436.813110351563	734.3533935546875	1060.801513671875	1283.325439453125	716.5337524414063	192.2352905273438	1418.404174804688	690.185302734375	196.2122497558594	1369.48974609375	707.6019897460938	272.7110595703125	1426.470581054688	686.3389892578125	275.7776794433594	1376.889038085938	791.0433959960938	652.6537475585938	1435.641479492188	731.637939453125	654.4342651367188	1391.939208984375	793.3570556640625	763.18017578125	1433.344848632813	738.3873291015625	764.3153686523438	1391.246704101563	818.9066162109375	461.0557861328125	1385.748046875	
40	0.26	756.6345825195313	103.2450103759766	1046.8486328125	774.1420288085938	108.3678207397461	1131.280639648438	901.66015625	1042.430541992188	1109.880493164063	832.3521728515625	938.8653564453125	1048.8583984375	670.9800415039063	44.7808837890625	1081.077514648438	702.0982666015625	63.113037109375	1036.866577148438	685.3003540039063	94.65462493896484	1085.981689453125	787.0917358398438	480.5337829589844	1031.1005859375	828.4534912109375	1104.73486328125	1080.697509765625	791.9170532226563	539.933349609375	1037.964599609375	780.7071533203125	522.521728515625	1151.222412109375	899.6255493164063	62.05416107177734	1116.474365234375	903.2263793945313	67.04570007324219	1075.270751953125	861.0535888671875	50.42312622070313	1009.3720703125	731.56103515625	1059.53955078125	1180.212768554688	745.0265502929688	176.3405303955078	1038.09033203125	706.9874267578125	177.1967315673828	1073.436645507813	740.07470703125	256.2948913574219	1026.246459960938	704.6629028320313	261.6227111816406	1066.123413085938	801.6503295898438	674.6505126953125	1021.919555664063	742.6194458007813	669.4964599609375	1065.203979492188	794.7677612304688	785.1552734375	1028.796020507813	742.1019287109375	779.5467529296875	1075.294067382813	836.3790283203125	453.2566528320313	1079.919677734375	736.9955444335938	108.3043518066406	1407.470581054688	762.6608276367188	114.8850860595703	1323.943725585938	907.8712768554688	1038.824096679688	1345.553100585938	834.031494140625	944.5027465820313	1403.701538085938	657.7484130859375	43.79059600830078	1371.126220703125	685.626953125	60.93898773193359	1412.813232421875	668.9267578125	93.07549285888672	1369.0791015625	771.0012817382813	487.4342346191406	1433.252319335938	839.4876708984375	1097.627197265625	1377.479125976563	775.2435302734375	543.294189453125	1426.126586914063	764.6394653320313	521.8663940429688	1313.217529296875	884.2174682617188	60.82499313354492	1330.671997070313	890.7689819335938	68.88942718505859	1376.734741210938	852.4283447265625	56.70132827758789	1436.821166992188	734.3552856445313	1060.795043945313	1283.33349609375	716.5369262695313	192.2295532226563	1418.405639648438	690.1824340820313	196.2056884765625	1369.495361328125	707.6021118164063	272.7096557617188	1426.47412109375	686.34716796875	275.7763366699219	1376.892456054688	791.0398559570313	652.6328735351563	1435.657104492188	731.6328125	654.4302978515625	1391.94384765625	793.3473510742188	763.1782836914063	1433.354248046875	738.3876342773438	764.3114013671875	1391.257568359375	818.9004516601563	461.0614929199219	1385.754150390625	
41	0.2666666666666667	756.6195678710938	103.2481918334961	1046.848022460938	774.14599609375	108.3683471679688	1131.278198242188	901.6641235351563	1042.443115234375	1109.898315429688	832.3529052734375	938.8611450195313	1048.87939453125	670.9841918945313	44.79738998413086	1081.076538085938	702.0962524414063	63.11528778076172	1036.866333007813	685.3027954101563	94.65666198730469	1085.9833984375	787.0863647460938	480.5323791503906	1031.116333007813	828.4596557617188	1104.750244140625	1080.71826171875	791.9148559570313	539.93017578125	1037.987915039063	780.6997680664063	522.5192260742188	1151.230224609375	899.6204223632813	62.05754089355469	1116.474609375	903.219482421875	67.04482269287109	1075.268188476563	861.050537109375	50.41925811767578	1009.367919921875	731.5672607421875	1059.539306640625	1180.23291015625	745.0283813476563	176.3384857177734	1038.096923828125	706.9910278320313	177.1995697021484	1073.443237304688	740.0767211914063	256.3002319335938	1026.25830078125	704.6557006835938	261.6317443847656	1066.12744140625	801.6351318359375	674.6383056640625	1021.940185546875	742.6187744140625	669.4917602539063	1065.219970703125	794.7670288085938	785.1608276367188	1028.812255859375	742.0996704101563	779.54638671875	1075.30224609375	836.3359985351563	453.1568298339844	1079.778198242188	737.3097534179688	107.9230270385742	1407.190185546875	762.6613159179688	114.8869323730469	1323.942016601563	907.872802734375	1038.817626953125	1345.576538085938	834.0205078125	944.5067138671875	1403.718383789063	657.7405395507813	43.7903938293457	1371.126586914063	685.6271362304688	60.93761825561523	1412.817016601563	668.9253540039063	93.07956695556641	1369.080932617188	770.9822387695313	487.4428405761719	1433.2607421875	839.4785766601563	1097.617065429688	1377.509033203125	775.2324829101563	543.290283203125	1426.14306640625	764.6428833007813	521.8596801757813	1313.22265625	884.2288208007813	60.83030319213867	1330.654296875	890.7684936523438	68.88234710693359	1376.730712890625	852.4342651367188	56.69377899169922	1436.818969726563	734.3610229492188	1060.799682617188	1283.348876953125	716.5300903320313	192.2310943603516	1418.41015625	690.1813354492188	196.2075347900391	1369.498413085938	707.5991821289063	272.707763671875	1426.479370117188	686.3433227539063	275.7817687988281	1376.897583007813	791.0372314453125	652.6297607421875	1435.667236328125	731.628662109375	654.4351196289063	1391.955810546875	793.3396606445313	763.180908203125	1433.372436523438	738.3811645507813	764.31396484375	1391.263793945313	818.8910522460938	461.0588073730469	1385.773315429688	
